<svg width="100" height="100" xmlns="http://www.w3.org/2000/svg" viewBox="0 0 200 200">
 <!-- Created with Method Draw - http://github.com/duopixel/Method-Draw/ -->
 <g>
  <title>background</title>
 </g>
 <g>
  <title>Layer 1</title>
  <ellipse ry="68" rx="67.85686" id="svg_1" cy="100" cx="100" stroke-width="1.5" stroke="#000" fill="#fff"/>
  <ellipse ry="58" rx="58" id="svg_2" cy="100" cx="100" stroke-width="1.5" stroke="#000" fill="#000"/>
  <path id="svg_13" d="m147.78996,37.09784c0.09598,-1.84739 -0.00456,23.18762 0.27322,25.40984c0.27778,2.22222 2.63662,5.04782 7.78006,5.46903c1.93988,1.10655 -0.12978,85.24135 -0.40301,84.96812c-0.42122,3.88433 5.19126,4.301 4.91804,0c-0.00455,-3.0601 -2.52964,-83.41979 -1.00187,-85.08646c4.16666,-1.11111 6.35141,-1.95659 6.48574,-4.32224c0.13433,-2.36565 0.53367,-24.58488 0.67711,-26.66365c0.14345,-2.07877 -5.01349,26.07007 -4.90366,24.5423c0.10982,-1.52777 -0.97515,-22.06566 -0.97059,-24.56109c0.13433,-2.22677 -3.31497,23.8712 -3.31497,24.84343c0.27778,1.52777 -2.79095,-21.97861 -2.9344,-24.48316c-0.14344,-2.50455 -1.9876,25.47344 -1.9876,23.87857c0,-1.59486 -4.71405,-22.1473 -4.61807,-23.99469z" stroke-opacity="null" stroke-width="1.5" stroke="#000" fill="#000"/>
  <path stroke="#000" id="svg_14" d="m45.74301,69.08563c0,0 -1.00607,84.55468 -0.31193,87.27106c0.69414,2.71639 -4.69918,2.69511 -4.43867,-0.24764c0.2609,-28.25029 3.38986,-80.97469 2.31233,-87.23651c-10.74336,-1.41625 -17.88091,-32.01077 0.29806,-32.87695c20.58282,-0.86619 10.55199,34.11078 2.14021,33.09004z" fill-opacity="null" stroke-opacity="null" stroke-width="1.5" fill="#000"/>
 </g>
</svg>